<svg width="40" height="40" viewBox="0 0 40 40" fill="none" xmlns="http://www.w3.org/2000/svg">
<path fill-rule="evenodd" clip-rule="evenodd" d="M19.9817 38.6667C26.8482 38.6667 32.4147 30.3093 32.4147 20C32.4147 9.6907 26.8482 1.33335 19.9817 1.33335C13.1151 1.33335 7.54864 9.6907 7.54864 20C7.54864 30.3093 13.1151 38.6667 19.9817 38.6667Z" fill="#FF8822"/>
<path d="M0 20C0 8.95431 8.95431 0 20 0C31.0457 0 40 8.95431 40 20C40 31.0457 31.0457 40 20 40C8.95431 40 0 31.0457 0 20Z" fill="#FF8822"/>
<path fill-rule="evenodd" clip-rule="evenodd" d="M19.8071 23.3429L24.7655 18.3845C25.1159 18.0341 25.1159 17.4659 24.7655 17.1155C24.415 16.765 23.8468 16.7647 23.4959 17.1149L19.1 21.503L16.9545 19.3645C16.6034 19.0144 16.0351 19.0149 15.6845 19.3655C15.3341 19.7159 15.3341 20.2841 15.6845 20.6345L18.3929 23.3429C18.7834 23.7334 19.4166 23.7334 19.8071 23.3429Z" fill="white"/>
<path fill-rule="evenodd" clip-rule="evenodd" d="M20 29C15.0294 29 11 24.9706 11 20C11 15.0294 15.0294 11 20 11C24.9706 11 29 15.0294 29 20C29 24.9706 24.9706 29 20 29ZM20 27.2C23.9764 27.2 27.2 23.9764 27.2 20C27.2 16.0236 23.9764 12.8 20 12.8C16.0236 12.8 12.8 16.0236 12.8 20C12.8 23.9764 16.0236 27.2 20 27.2Z" fill="white"/>
</svg>
